<?xml version="1.0" standalone="no"?>
<!DOCTYPE svg PUBLIC "-//W3C//DTD SVG 20010904//EN"
 "http://www.w3.org/TR/2001/REC-SVG-20010904/DTD/svg10.dtd">
<svg version="1.0" xmlns="http://www.w3.org/2000/svg"
 width="1116.000000pt" height="441.000000pt" viewBox="0 0 1116.000000 441.000000"
 preserveAspectRatio="xMidYMid meet">

<g transform="translate(0.000000,441.000000) scale(0.100000,-0.100000)"
fill="#000000" stroke="none">
<path d="M1185 3589 c-100 -35 -161 -90 -209 -189 l-31 -65 -3 -585 c-2 -322
0 -595 3 -608 13 -52 109 -61 134 -13 8 13 11 207 11 588 l0 568 24 50 c40 87
120 133 211 122 22 -3 34 -3 28 0 -16 6 -17 33 -1 33 6 0 9 3 6 6 -4 3 -8 4
-11 2 -8 -5 -47 34 -42 42 3 5 -8 7 -25 6 -31 -2 -49 18 -24 28 8 3 14 1 14
-5 0 -6 7 -8 16 -5 9 4 29 -1 43 -11 20 -12 23 -13 14 -2 -10 12 -10 18 -1 27
14 14 42 16 33 3 -3 -5 0 -13 6 -17 8 -5 9 -3 4 6 -6 10 0 12 31 8 l39 -6 -35
15 c-58 26 -165 27 -235 2z m40 -21 c5 4 5 -1 2 -11 -4 -10 -3 -16 2 -12 5 3
13 0 16 -6 4 -5 14 -8 22 -5 8 4 11 1 7 -5 -3 -6 -17 -8 -30 -5 -14 4 -24 2
-24 -4 0 -5 4 -10 8 -10 4 0 8 -10 9 -22 2 -17 -8 -29 -39 -45 -43 -24 -68
-18 -68 16 0 9 -14 25 -30 35 -37 21 -32 31 33 61 35 17 56 21 67 15 10 -5 21
-6 25 -2z"/>
<path d="M1542 3505 c20 -22 48 -62 63 -90 14 -27 23 -39 19 -25 -10 39 -39
82 -81 120 l-38 35 37 -40z"/>
<path d="M1451 3400 c-1 -3 10 -27 24 -54 14 -27 26 -63 26 -80 1 -28 2 -27 9
9 5 24 4 45 -2 52 -5 7 -7 17 -3 23 3 5 -2 10 -12 10 -15 0 -16 2 -3 10 12 8
11 10 -7 10 -12 0 -24 6 -26 13 -3 6 -6 10 -6 7z"/>
<path d="M1642 3285 c0 -16 2 -22 5 -12 2 9 2 23 0 30 -3 6 -5 -1 -5 -18z"/>
<path d="M1642 3225 c0 -16 2 -22 5 -12 2 9 2 23 0 30 -3 6 -5 -1 -5 -18z"/>
<path d="M1502 2973 c-1 -140 2 -253 8 -268 17 -45 87 -56 124 -19 13 13 16
41 14 167 -1 95 -3 120 -5 68 -4 -79 -5 -83 -19 -62 -9 12 -19 19 -24 16 -12
-7 -19 18 -13 50 4 17 2 26 -4 22 -13 -8 -38 37 -29 52 4 6 2 11 -3 11 -6 0
-11 -5 -11 -11 0 -8 -4 -8 -15 1 -10 9 -15 40 -18 113 -1 56 -4 -7 -5 -140z"/>
<path d="M1644 3100 c0 -52 1 -74 3 -47 2 26 2 68 0 95 -2 26 -3 4 -3 -48z"/>
<path d="M2027 2882 c-37 -37 -67 -71 -67 -76 0 -5 7 -2 17 5 17 14 20 14 40
-2 8 -7 10 -5 6 10 -4 15 2 24 20 32 14 6 24 18 22 28 -1 9 9 28 23 44 14 15
21 27 16 27 -5 0 -40 -30 -77 -68z"/>
<path d="M8002 2921 c-76 -36 -104 -143 -54 -211 63 -86 221 -79 268 12 69
133 -73 265 -214 199z"/>
<path d="M2210 2865 c-7 -8 -17 -12 -24 -8 -6 3 -8 3 -4 -2 9 -10 -40 -37 -53
-29 -8 5 -13 -9 -10 -28 0 -4 -8 -5 -18 -3 -10 2 -18 -3 -18 -10 0 -8 4 -12 8
-9 4 2 11 0 14 -6 4 -6 3 -10 -2 -9 -26 4 -41 -3 -38 -18 2 -11 -20 -41 -53
-75 l-56 -57 -24 24 c-13 13 -21 28 -18 34 4 5 2 12 -4 16 -5 3 -10 1 -10 -4
0 -6 -5 -11 -11 -11 -5 0 -8 4 -5 9 4 5 -4 7 -16 4 -21 -5 -21 -4 7 27 l30 34
-40 -31 c-74 -57 -550 -547 -610 -628 -129 -173 -215 -351 -265 -550 -41 -161
-53 -260 -48 -403 3 -117 6 -132 35 -194 38 -81 97 -141 172 -177 48 -22 69
-26 151 -26 88 0 101 3 163 33 55 28 77 46 113 94 73 99 76 119 83 483 6 287
9 324 26 358 10 20 22 37 25 37 4 0 197 -191 430 -425 385 -386 425 -428 427
-460 3 -51 32 -93 78 -115 49 -24 74 -25 119 -6 139 58 96 272 -54 268 l-48
-1 -426 433 -425 433 27 26 c15 14 74 62 131 106 l105 79 60 -53 c34 -30 145
-140 249 -244 166 -169 187 -194 187 -223 0 -104 112 -179 200 -133 122 63 92
247 -45 262 -44 6 -52 12 -235 197 -104 105 -207 202 -230 216 -92 56 -97 40
62 182 122 108 342 324 283 276 -11 -8 -30 -19 -42 -22 -11 -4 -24 -13 -27
-21 -3 -8 -12 -12 -21 -9 -9 4 -15 1 -15 -8 0 -8 -12 -21 -27 -28 -16 -8 -37
-21 -47 -30 -11 -8 -16 -9 -12 -2 7 11 -5 17 -27 13 -5 -1 -6 3 -2 9 3 6 11 8
16 5 5 -4 16 -2 25 3 15 8 15 10 -1 16 -9 3 -21 4 -26 0 -5 -3 -9 0 -9 6 0 6
7 13 15 16 8 4 15 15 15 25 0 10 5 19 12 19 6 0 9 3 5 6 -8 8 18 34 33 34 6 0
8 5 5 10 -3 6 -3 10 2 10 4 0 13 12 20 26 7 14 -43 -27 -110 -93 -141 -137
-302 -273 -507 -428 -224 -169 -298 -255 -351 -405 -22 -61 -24 -85 -29 -375
l-5 -310 -27 -45 c-35 -61 -88 -90 -162 -90 -94 0 -156 40 -192 125 -23 54
-23 257 0 380 40 210 137 430 263 601 42 55 215 238 462 487 217 218 392 397
389 397 -3 0 -11 -7 -18 -15z m129 -414 c8 -6 11 -16 6 -31 -6 -18 -4 -22 7
-18 9 4 18 -4 25 -23 10 -27 9 -31 -25 -59 -20 -16 -41 -30 -47 -30 -12 1 25
30 37 30 4 0 8 5 8 10 0 6 -7 10 -16 10 -13 0 -14 3 -4 15 7 8 17 12 24 8 6
-4 6 0 -2 9 -7 9 -21 14 -32 11 -11 -3 -26 0 -34 6 -11 9 -16 9 -22 0 -4 -8
-3 -9 4 -5 7 4 12 1 12 -8 0 -12 -5 -14 -24 -6 -22 8 -24 6 -22 -15 3 -21 1
-22 -16 -12 -18 11 -15 16 39 64 63 57 62 57 82 44z m-19 -416 c7 -9 8 -15 2
-15 -5 0 -12 7 -16 15 -3 8 -4 15 -2 15 2 0 9 -7 16 -15z"/>
<path d="M4070 2140 l0 -730 140 0 140 0 0 221 0 220 71 85 c39 46 75 84 80
84 5 0 100 -137 211 -305 l203 -305 168 0 c92 0 167 3 167 6 0 7 -164 248
-387 570 -84 122 -153 227 -153 233 0 7 62 85 138 173 75 89 191 225 256 302
66 78 126 149 134 159 14 16 6 17 -156 17 l-171 0 -273 -325 c-149 -179 -275
-325 -280 -325 -4 0 -8 146 -8 325 l0 325 -140 0 -140 0 0 -730z"/>
<path d="M5420 2140 l0 -730 135 0 135 0 0 730 0 730 -135 0 -135 0 0 -730z"/>
<path d="M8560 2646 l0 -134 -65 -7 c-35 -4 -71 -5 -80 -1 -13 5 -15 -10 -15
-99 l0 -105 79 0 80 0 3 -337 c3 -328 4 -339 26 -388 52 -114 140 -166 291
-173 95 -5 201 11 201 29 0 6 -4 29 -10 52 -5 23 -14 67 -20 98 l-11 56 -72
-5 c-67 -4 -75 -2 -103 21 l-29 25 -3 311 -3 311 111 0 110 0 2 65 c1 36 2 82
3 102 l0 37 -110 1 -110 0 -3 138 -3 137 -134 0 -135 0 0 -134z"/>
<path d="M6241 2500 c-131 -35 -221 -103 -272 -206 -17 -35 -29 -69 -26 -77 6
-17 250 -44 255 -28 12 35 54 79 94 99 55 28 156 32 210 9 41 -17 84 -66 93
-105 17 -80 -41 -116 -219 -132 -330 -31 -465 -128 -468 -333 -1 -80 13 -132
47 -187 33 -52 62 -75 139 -111 57 -26 84 -33 160 -37 141 -7 241 28 324 115
l32 34 0 -65 0 -66 130 0 130 0 0 393 c0 403 -4 448 -43 522 -19 37 -89 104
-138 134 -100 59 -306 78 -448 41z m357 -663 c-3 -79 -8 -100 -31 -140 -39
-66 -99 -99 -191 -105 -125 -8 -201 43 -201 134 0 93 46 124 226 155 67 11
136 26 153 34 17 7 35 14 40 14 4 1 7 -41 4 -92z"/>
<path d="M7571 2508 c-68 -19 -132 -78 -161 -149 -21 -50 -30 -32 -30 59 l0
87 -130 -3 -130 -3 0 -545 0 -544 134 0 134 0 4 338 c3 292 6 342 21 376 30
67 67 107 125 134 48 22 64 24 132 19 92 -6 85 -16 95 134 7 95 7 96 -16 102
-35 10 -139 7 -178 -5z"/>
<path d="M8037 2503 l-97 -4 2 -542 3 -542 135 0 135 0 0 545 0 545 -40 1
c-22 0 -84 -1 -138 -3z"/>
<path d="M9182 2489 c6 -27 90 -254 278 -752 124 -328 124 -329 112 -374 -27
-101 -78 -137 -185 -131 l-70 3 -23 -85 c-31 -115 -31 -117 14 -129 172 -45
345 0 435 114 57 71 74 112 282 685 227 623 247 681 243 685 -2 1 -67 0 -145
-3 l-143 -5 -19 -61 c-77 -252 -223 -702 -231 -710 -5 -5 -50 121 -105 290
-53 165 -110 341 -126 392 l-31 92 -128 0 c-71 0 -136 3 -146 7 -14 5 -16 2
-12 -18z"/>
<path d="M2924 1351 c-35 -21 -64 -75 -64 -118 0 -96 114 -163 201 -118 90 47
90 196 -1 242 -36 19 -101 16 -136 -6z"/>
<path d="M3166 969 c-86 -68 -71 -196 27 -234 114 -43 217 60 172 173 -11 25
-30 49 -50 62 -44 27 -114 27 -149 -1z"/>
</g>
</svg>
